<svg width="139" height="40" viewBox="0 0 139 40" fill="none" xmlns="http://www.w3.org/2000/svg">
<path d="M32 0C36.4183 0 40 3.58172 40 8V32C40 36.4183 36.4183 40 32 40H8C3.58172 40 0 36.4183 0 32V8C0 3.58172 3.58172 0 8 0H32Z" fill="#0071FB"/>
<path d="M32 0C36.4183 0 40 3.58172 40 8V32C40 36.4183 36.4183 40 32 40H8C3.58172 40 0 36.4183 0 32V8C0 3.58172 3.58172 0 8 0H32Z" stroke="#E5E7EB"/>
<path d="M12.5483 28V10.5455H16.2386V17.7472H23.7301V10.5455H27.4119V28H23.7301V20.7898H16.2386V28H12.5483Z" fill="white"/>
<path d="M53.2642 25V10.4545H56.3395V16.456H62.5824V10.4545H65.6506V25H62.5824V18.9915H56.3395V25H53.2642ZM68.6293 25V14.0909H71.6548V25H68.6293ZM70.1491 12.6847C69.6993 12.6847 69.3134 12.5355 68.9915 12.2372C68.6742 11.9342 68.5156 11.572 68.5156 11.1506C68.5156 10.7339 68.6742 10.3764 68.9915 10.0781C69.3134 9.77509 69.6993 9.62358 70.1491 9.62358C70.599 9.62358 70.9825 9.77509 71.2997 10.0781C71.6217 10.3764 71.7827 10.7339 71.7827 11.1506C71.7827 11.572 71.6217 11.9342 71.2997 12.2372C70.9825 12.5355 70.599 12.6847 70.1491 12.6847ZM74.5785 25V14.0909H77.5117V15.9943H77.6254C77.8242 15.3172 78.158 14.8059 78.6268 14.4602C79.0955 14.1098 79.6353 13.9347 80.2461 13.9347C80.3976 13.9347 80.561 13.9441 80.7362 13.9631C80.9113 13.982 81.0652 14.008 81.1978 14.0412V16.7259C81.0558 16.6832 80.8593 16.6454 80.6083 16.6122C80.3574 16.5791 80.1277 16.5625 79.9194 16.5625C79.4743 16.5625 79.0766 16.6596 78.7262 16.8537C78.3806 17.0431 78.1059 17.3082 77.9023 17.6491C77.7035 17.9901 77.604 18.383 77.604 18.8281V25H74.5785ZM87.7259 25.2131C86.6037 25.2131 85.6378 24.9858 84.8281 24.5312C84.0232 24.072 83.4029 23.4233 82.9673 22.5852C82.5317 21.7424 82.3139 20.7457 82.3139 19.5952C82.3139 18.473 82.5317 17.4882 82.9673 16.6406C83.4029 15.7931 84.0161 15.1326 84.8068 14.6591C85.6023 14.1856 86.535 13.9489 87.6051 13.9489C88.3248 13.9489 88.9948 14.0649 89.6151 14.2969C90.2401 14.5241 90.7846 14.8674 91.2486 15.3267C91.7173 15.786 92.0819 16.3636 92.3423 17.0597C92.6027 17.7509 92.733 18.5606 92.733 19.4886V20.3196H83.5213V18.4446H89.8849C89.8849 18.009 89.7902 17.6231 89.6009 17.2869C89.4115 16.9508 89.1487 16.688 88.8125 16.4986C88.4811 16.3045 88.0952 16.2074 87.6548 16.2074C87.1955 16.2074 86.7884 16.3139 86.4332 16.527C86.0829 16.7353 85.8082 17.017 85.6094 17.3722C85.4105 17.7225 85.3087 18.1132 85.304 18.544V20.3267C85.304 20.8665 85.4034 21.3329 85.6023 21.7259C85.8059 22.1188 86.0923 22.4219 86.4616 22.6349C86.831 22.848 87.2689 22.9545 87.7756 22.9545C88.1117 22.9545 88.4195 22.9072 88.6989 22.8125C88.9782 22.7178 89.2173 22.5758 89.4162 22.3864C89.6151 22.197 89.7666 21.965 89.8707 21.6903L92.669 21.875C92.527 22.5473 92.2358 23.1345 91.7955 23.6364C91.3598 24.1335 90.7964 24.5218 90.1051 24.8011C89.4186 25.0758 88.6255 25.2131 87.7259 25.2131ZM98.233 18.6932V25H95.2074V14.0909H98.0909V16.0156H98.2188C98.4602 15.3812 98.8651 14.8793 99.4332 14.5099C100.001 14.1359 100.69 13.9489 101.5 13.9489C102.258 13.9489 102.918 14.1146 103.482 14.446C104.045 14.7775 104.483 15.2509 104.795 15.8665C105.108 16.4773 105.264 17.2064 105.264 18.054V25H102.239V18.5938C102.243 17.9261 102.073 17.4053 101.727 17.0312C101.382 16.6525 100.906 16.4631 100.3 16.4631C99.8925 16.4631 99.5327 16.5507 99.2202 16.7259C98.9124 16.901 98.6709 17.1567 98.4957 17.4929C98.3253 17.8243 98.2377 18.2244 98.233 18.6932ZM113.12 25.2131C111.998 25.2131 111.032 24.9858 110.223 24.5312C109.418 24.072 108.797 23.4233 108.362 22.5852C107.926 21.7424 107.708 20.7457 107.708 19.5952C107.708 18.473 107.926 17.4882 108.362 16.6406C108.797 15.7931 109.411 15.1326 110.201 14.6591C110.997 14.1856 111.93 13.9489 113 13.9489C113.719 13.9489 114.389 14.0649 115.01 14.2969C115.635 14.5241 116.179 14.8674 116.643 15.3267C117.112 15.786 117.476 16.3636 117.737 17.0597C117.997 17.7509 118.127 18.5606 118.127 19.4886V20.3196H108.916V18.4446H115.279C115.279 18.009 115.185 17.6231 114.995 17.2869C114.806 16.9508 114.543 16.688 114.207 16.4986C113.876 16.3045 113.49 16.2074 113.049 16.2074C112.59 16.2074 112.183 16.3139 111.828 16.527C111.477 16.7353 111.203 17.017 111.004 17.3722C110.805 17.7225 110.703 18.1132 110.699 18.544V20.3267C110.699 20.8665 110.798 21.3329 110.997 21.7259C111.2 22.1188 111.487 22.4219 111.856 22.6349C112.225 22.848 112.663 22.9545 113.17 22.9545C113.506 22.9545 113.814 22.9072 114.093 22.8125C114.373 22.7178 114.612 22.5758 114.811 22.3864C115.01 22.197 115.161 21.965 115.265 21.6903L118.064 21.875C117.922 22.5473 117.63 23.1345 117.19 23.6364C116.754 24.1335 116.191 24.5218 115.5 24.8011C114.813 25.0758 114.02 25.2131 113.12 25.2131ZM129.679 17.2017L126.909 17.3722C126.861 17.1354 126.76 16.9223 126.603 16.733C126.447 16.5388 126.241 16.3849 125.985 16.2713C125.734 16.1529 125.434 16.0938 125.083 16.0938C124.615 16.0938 124.219 16.1932 123.897 16.392C123.575 16.5862 123.414 16.8466 123.414 17.1733C123.414 17.4337 123.519 17.6539 123.727 17.8338C123.935 18.0137 124.293 18.1581 124.799 18.267L126.774 18.6648C127.834 18.8826 128.625 19.233 129.146 19.7159C129.667 20.1989 129.927 20.8333 129.927 21.6193C129.927 22.3343 129.717 22.9616 129.295 23.5014C128.878 24.0412 128.306 24.4626 127.576 24.7656C126.852 25.0639 126.016 25.2131 125.069 25.2131C123.625 25.2131 122.475 24.9124 121.618 24.3111C120.765 23.705 120.266 22.8812 120.119 21.8395L123.095 21.6832C123.185 22.1236 123.403 22.4598 123.748 22.6918C124.094 22.919 124.537 23.0327 125.076 23.0327C125.607 23.0327 126.033 22.9309 126.355 22.7273C126.681 22.5189 126.847 22.2514 126.852 21.9247C126.847 21.6501 126.731 21.4252 126.504 21.25C126.277 21.0701 125.926 20.9328 125.453 20.8381L123.564 20.4616C122.498 20.2486 121.705 19.8793 121.184 19.3537C120.668 18.8281 120.41 18.1581 120.41 17.3438C120.41 16.643 120.6 16.0393 120.978 15.5327C121.362 15.026 121.899 14.6354 122.591 14.3608C123.287 14.0862 124.101 13.9489 125.034 13.9489C126.412 13.9489 127.496 14.2401 128.287 14.8224C129.082 15.4048 129.546 16.1979 129.679 17.2017ZM138.135 14.0909V16.3636H131.565V14.0909H138.135ZM133.057 11.4773H136.082V21.6477C136.082 21.9271 136.125 22.1449 136.21 22.3011C136.295 22.4527 136.414 22.5592 136.565 22.6207C136.722 22.6823 136.902 22.7131 137.105 22.7131C137.247 22.7131 137.389 22.7012 137.531 22.6776C137.673 22.6491 137.782 22.6278 137.858 22.6136L138.334 24.8651C138.182 24.9124 137.969 24.9669 137.695 25.0284C137.42 25.0947 137.086 25.1349 136.693 25.1491C135.964 25.1776 135.325 25.0805 134.776 24.858C134.231 24.6354 133.807 24.2898 133.504 23.821C133.201 23.3523 133.052 22.7604 133.057 22.0455V11.4773Z" fill="#0071FB"/>
</svg>
